<svg xmlns="http://www.w3.org/2000/svg" xmlns:xlink="http://www.w3.org/1999/xlink" width="2240" zoomAndPan="magnify" viewBox="0 0 1680 944.999993" height="1260" preserveAspectRatio="xMidYMid meet" version="1.0"><defs><g><g id="id1"/><g id="id2"/></g><clipPath id="id3"><path d="M 60.480469 128.8125 L 568 128.8125 L 568 714.5625 L 60.480469 714.5625 Z M 60.480469 128.8125 " clip-rule="nonzero"/></clipPath><clipPath id="id4"><path d="M 117.335938 307.90625 L 287.082031 209.789062 L 314.257812 194.226562 L 341.433594 209.789062 L 341.433594 144.574219 L 314.257812 128.8125 L 287.082031 144.574219 L 187.636719 202.105469 L 60.816406 275.203125 L 60.816406 568.175781 L 174.046875 633.390625 L 187.636719 641.269531 L 230.566406 666.097656 L 230.566406 373.320312 L 287.082031 340.613281 L 287.082031 568.175781 L 314.257812 583.742188 L 341.433594 568.175781 L 454.660156 502.765625 L 454.660156 275.203125 L 511.179688 307.90625 L 511.179688 535.46875 L 341.433594 633.390625 L 314.257812 649.152344 L 287.082031 633.390625 L 287.082031 698.800781 L 314.257812 714.5625 L 341.433594 698.800781 L 441.074219 641.269531 L 567.890625 568.175781 L 567.890625 275.203125 L 454.660156 209.789062 L 441.074219 202.105469 L 398.144531 177.28125 L 398.144531 470.058594 L 341.433594 502.765625 L 341.433594 275.203125 L 314.257812 259.636719 L 287.082031 275.203125 L 174.046875 340.613281 L 174.046875 568.175781 L 117.335938 535.46875 Z M 117.335938 307.90625 " clip-rule="evenodd"/></clipPath><linearGradient x1="15.344224" gradientTransform="matrix(19.692198, 0, 0, 19.70232, 60.817961, 128.813799)" y1="-0.779857" x2="16.917679" gradientUnits="userSpaceOnUse" y2="30.178897" xlink:type="simple" xlink:actuate="onLoad" id="id5" xlink:show="other"><stop stop-opacity="1" stop-color="rgb(36.898804%, 8.999634%, 92.199707%)" offset="0"/><stop stop-opacity="1" stop-color="rgb(36.898804%, 8.999634%, 92.199707%)" offset="0.0421642"/><stop stop-opacity="1" stop-color="rgb(36.898804%, 8.999634%, 92.199707%)" offset="0.125"/><stop stop-opacity="1" stop-color="rgb(36.898804%, 8.999634%, 92.199707%)" offset="0.1875"/><stop stop-opacity="1" stop-color="rgb(36.898804%, 8.999634%, 92.199707%)" offset="0.203125"/><stop stop-opacity="1" stop-color="rgb(37.072754%, 9.130859%, 92.027283%)" offset="0.210938"/><stop stop-opacity="1" stop-color="rgb(37.59613%, 9.529114%, 91.513062%)" offset="0.214844"/><stop stop-opacity="1" stop-color="rgb(37.945557%, 9.794617%, 91.171265%)" offset="0.21875"/><stop stop-opacity="1" stop-color="rgb(38.294983%, 10.058594%, 90.827942%)" offset="0.222656"/><stop stop-opacity="1" stop-color="rgb(38.644409%, 10.324097%, 90.484619%)" offset="0.226562"/><stop stop-opacity="1" stop-color="rgb(38.993835%, 10.5896%, 90.141296%)" offset="0.230469"/><stop stop-opacity="1" stop-color="rgb(39.343262%, 10.855103%, 89.797974%)" offset="0.234375"/><stop stop-opacity="1" stop-color="rgb(39.692688%, 11.120605%, 89.454651%)" offset="0.238281"/><stop stop-opacity="1" stop-color="rgb(40.042114%, 11.386108%, 89.111328%)" offset="0.242188"/><stop stop-opacity="1" stop-color="rgb(40.391541%, 11.650085%, 88.768005%)" offset="0.246094"/><stop stop-opacity="1" stop-color="rgb(40.740967%, 11.915588%, 88.424683%)" offset="0.25"/><stop stop-opacity="1" stop-color="rgb(41.090393%, 12.181091%, 88.08136%)" offset="0.253906"/><stop stop-opacity="1" stop-color="rgb(41.439819%, 12.446594%, 87.738037%)" offset="0.257812"/><stop stop-opacity="1" stop-color="rgb(41.789246%, 12.710571%, 87.394714%)" offset="0.261719"/><stop stop-opacity="1" stop-color="rgb(42.138672%, 12.976074%, 87.051392%)" offset="0.265625"/><stop stop-opacity="1" stop-color="rgb(42.488098%, 13.241577%, 86.708069%)" offset="0.269531"/><stop stop-opacity="1" stop-color="rgb(42.837524%, 13.50708%, 86.364746%)" offset="0.273438"/><stop stop-opacity="1" stop-color="rgb(43.186951%, 13.772583%, 86.021423%)" offset="0.277344"/><stop stop-opacity="1" stop-color="rgb(43.536377%, 14.038086%, 85.678101%)" offset="0.28125"/><stop stop-opacity="1" stop-color="rgb(43.885803%, 14.302063%, 85.334778%)" offset="0.285156"/><stop stop-opacity="1" stop-color="rgb(44.235229%, 14.567566%, 84.991455%)" offset="0.289062"/><stop stop-opacity="1" stop-color="rgb(44.584656%, 14.833069%, 84.648132%)" offset="0.292969"/><stop stop-opacity="1" stop-color="rgb(44.934082%, 15.098572%, 84.30481%)" offset="0.296875"/><stop stop-opacity="1" stop-color="rgb(45.283508%, 15.364075%, 83.961487%)" offset="0.300781"/><stop stop-opacity="1" stop-color="rgb(45.632935%, 15.629578%, 83.618164%)" offset="0.304688"/><stop stop-opacity="1" stop-color="rgb(45.982361%, 15.893555%, 83.274841%)" offset="0.308594"/><stop stop-opacity="1" stop-color="rgb(46.331787%, 16.159058%, 82.931519%)" offset="0.3125"/><stop stop-opacity="1" stop-color="rgb(46.681213%, 16.424561%, 82.588196%)" offset="0.316406"/><stop stop-opacity="1" stop-color="rgb(47.03064%, 16.690063%, 82.244873%)" offset="0.320312"/><stop stop-opacity="1" stop-color="rgb(47.380066%, 16.955566%, 81.90155%)" offset="0.324219"/><stop stop-opacity="1" stop-color="rgb(47.729492%, 17.221069%, 81.558228%)" offset="0.328125"/><stop stop-opacity="1" stop-color="rgb(48.078918%, 17.485046%, 81.214905%)" offset="0.332031"/><stop stop-opacity="1" stop-color="rgb(48.428345%, 17.750549%, 80.871582%)" offset="0.335938"/><stop stop-opacity="1" stop-color="rgb(48.777771%, 18.016052%, 80.528259%)" offset="0.339844"/><stop stop-opacity="1" stop-color="rgb(49.127197%, 18.281555%, 80.184937%)" offset="0.34375"/><stop stop-opacity="1" stop-color="rgb(49.476624%, 18.547058%, 79.841614%)" offset="0.347656"/><stop stop-opacity="1" stop-color="rgb(49.82605%, 18.812561%, 79.498291%)" offset="0.351562"/><stop stop-opacity="1" stop-color="rgb(50.175476%, 19.076538%, 79.154968%)" offset="0.355469"/><stop stop-opacity="1" stop-color="rgb(50.524902%, 19.342041%, 78.811646%)" offset="0.359375"/><stop stop-opacity="1" stop-color="rgb(50.874329%, 19.607544%, 78.468323%)" offset="0.363281"/><stop stop-opacity="1" stop-color="rgb(51.223755%, 19.873047%, 78.125%)" offset="0.367188"/><stop stop-opacity="1" stop-color="rgb(51.573181%, 20.137024%, 77.781677%)" offset="0.371094"/><stop stop-opacity="1" stop-color="rgb(51.922607%, 20.402527%, 77.438354%)" offset="0.375"/><stop stop-opacity="1" stop-color="rgb(52.272034%, 20.66803%, 77.095032%)" offset="0.378906"/><stop stop-opacity="1" stop-color="rgb(52.62146%, 20.933533%, 76.751709%)" offset="0.382812"/><stop stop-opacity="1" stop-color="rgb(52.970886%, 21.199036%, 76.408386%)" offset="0.386719"/><stop stop-opacity="1" stop-color="rgb(53.320312%, 21.464539%, 76.065063%)" offset="0.390625"/><stop stop-opacity="1" stop-color="rgb(53.669739%, 21.728516%, 75.721741%)" offset="0.394531"/><stop stop-opacity="1" stop-color="rgb(54.019165%, 21.994019%, 75.378418%)" offset="0.398438"/><stop stop-opacity="1" stop-color="rgb(54.368591%, 22.259521%, 75.035095%)" offset="0.402344"/><stop stop-opacity="1" stop-color="rgb(54.718018%, 22.525024%, 74.691772%)" offset="0.40625"/><stop stop-opacity="1" stop-color="rgb(55.065918%, 22.790527%, 74.34845%)" offset="0.410156"/><stop stop-opacity="1" stop-color="rgb(55.415344%, 23.05603%, 74.005127%)" offset="0.414062"/><stop stop-opacity="1" stop-color="rgb(55.764771%, 23.320007%, 73.661804%)" offset="0.417969"/><stop stop-opacity="1" stop-color="rgb(56.114197%, 23.58551%, 73.318481%)" offset="0.421875"/><stop stop-opacity="1" stop-color="rgb(56.463623%, 23.851013%, 72.975159%)" offset="0.425781"/><stop stop-opacity="1" stop-color="rgb(56.813049%, 24.116516%, 72.631836%)" offset="0.429688"/><stop stop-opacity="1" stop-color="rgb(57.162476%, 24.382019%, 72.288513%)" offset="0.433594"/><stop stop-opacity="1" stop-color="rgb(57.511902%, 24.647522%, 71.94519%)" offset="0.4375"/><stop stop-opacity="1" stop-color="rgb(57.861328%, 24.911499%, 71.601868%)" offset="0.441406"/><stop stop-opacity="1" stop-color="rgb(58.210754%, 25.177002%, 71.258545%)" offset="0.445312"/><stop stop-opacity="1" stop-color="rgb(58.560181%, 25.442505%, 70.915222%)" offset="0.449219"/><stop stop-opacity="1" stop-color="rgb(58.909607%, 25.708008%, 70.571899%)" offset="0.453125"/><stop stop-opacity="1" stop-color="rgb(59.259033%, 25.973511%, 70.228577%)" offset="0.457031"/><stop stop-opacity="1" stop-color="rgb(59.608459%, 26.239014%, 69.885254%)" offset="0.460937"/><stop stop-opacity="1" stop-color="rgb(59.957886%, 26.502991%, 69.541931%)" offset="0.464844"/><stop stop-opacity="1" stop-color="rgb(60.307312%, 26.768494%, 69.198608%)" offset="0.46875"/><stop stop-opacity="1" stop-color="rgb(60.656738%, 27.033997%, 68.855286%)" offset="0.472656"/><stop stop-opacity="1" stop-color="rgb(61.006165%, 27.2995%, 68.511963%)" offset="0.476562"/><stop stop-opacity="1" stop-color="rgb(61.355591%, 27.565002%, 68.16864%)" offset="0.480469"/><stop stop-opacity="1" stop-color="rgb(61.705017%, 27.830505%, 67.825317%)" offset="0.484375"/><stop stop-opacity="1" stop-color="rgb(62.054443%, 28.094482%, 67.481995%)" offset="0.488281"/><stop stop-opacity="1" stop-color="rgb(62.40387%, 28.359985%, 67.138672%)" offset="0.492188"/><stop stop-opacity="1" stop-color="rgb(62.753296%, 28.625488%, 66.795349%)" offset="0.496094"/><stop stop-opacity="1" stop-color="rgb(63.102722%, 28.890991%, 66.452026%)" offset="0.5"/><stop stop-opacity="1" stop-color="rgb(63.452148%, 29.154968%, 66.108704%)" offset="0.503906"/><stop stop-opacity="1" stop-color="rgb(63.801575%, 29.420471%, 65.765381%)" offset="0.507812"/><stop stop-opacity="1" stop-color="rgb(64.151001%, 29.685974%, 65.422058%)" offset="0.511719"/><stop stop-opacity="1" stop-color="rgb(64.500427%, 29.951477%, 65.078735%)" offset="0.515625"/><stop stop-opacity="1" stop-color="rgb(64.849854%, 30.21698%, 64.735413%)" offset="0.519531"/><stop stop-opacity="1" stop-color="rgb(65.19928%, 30.482483%, 64.39209%)" offset="0.523438"/><stop stop-opacity="1" stop-color="rgb(65.548706%, 30.74646%, 64.048767%)" offset="0.527344"/><stop stop-opacity="1" stop-color="rgb(65.898132%, 31.011963%, 63.705444%)" offset="0.53125"/><stop stop-opacity="1" stop-color="rgb(66.247559%, 31.277466%, 63.362122%)" offset="0.535156"/><stop stop-opacity="1" stop-color="rgb(66.596985%, 31.542969%, 63.018799%)" offset="0.539062"/><stop stop-opacity="1" stop-color="rgb(66.946411%, 31.808472%, 62.675476%)" offset="0.542969"/><stop stop-opacity="1" stop-color="rgb(67.295837%, 32.073975%, 62.332153%)" offset="0.546875"/><stop stop-opacity="1" stop-color="rgb(67.645264%, 32.337952%, 61.988831%)" offset="0.550781"/><stop stop-opacity="1" stop-color="rgb(67.99469%, 32.603455%, 61.645508%)" offset="0.554688"/><stop stop-opacity="1" stop-color="rgb(68.344116%, 32.868958%, 61.302185%)" offset="0.558594"/><stop stop-opacity="1" stop-color="rgb(68.693542%, 33.13446%, 60.958862%)" offset="0.5625"/><stop stop-opacity="1" stop-color="rgb(69.042969%, 33.399963%, 60.61554%)" offset="0.566406"/><stop stop-opacity="1" stop-color="rgb(69.392395%, 33.665466%, 60.272217%)" offset="0.570312"/><stop stop-opacity="1" stop-color="rgb(69.741821%, 33.929443%, 59.928894%)" offset="0.574219"/><stop stop-opacity="1" stop-color="rgb(70.091248%, 34.194946%, 59.585571%)" offset="0.578125"/><stop stop-opacity="1" stop-color="rgb(70.440674%, 34.460449%, 59.242249%)" offset="0.582031"/><stop stop-opacity="1" stop-color="rgb(70.7901%, 34.725952%, 58.898926%)" offset="0.585938"/><stop stop-opacity="1" stop-color="rgb(71.139526%, 34.991455%, 58.555603%)" offset="0.589844"/><stop stop-opacity="1" stop-color="rgb(71.488953%, 35.256958%, 58.213806%)" offset="0.59375"/><stop stop-opacity="1" stop-color="rgb(71.838379%, 35.520935%, 57.870483%)" offset="0.597656"/><stop stop-opacity="1" stop-color="rgb(72.187805%, 35.786438%, 57.527161%)" offset="0.601562"/><stop stop-opacity="1" stop-color="rgb(72.537231%, 36.051941%, 57.183838%)" offset="0.605469"/><stop stop-opacity="1" stop-color="rgb(72.886658%, 36.317444%, 56.840515%)" offset="0.609375"/><stop stop-opacity="1" stop-color="rgb(73.236084%, 36.582947%, 56.497192%)" offset="0.613281"/><stop stop-opacity="1" stop-color="rgb(73.58551%, 36.84845%, 56.15387%)" offset="0.617188"/><stop stop-opacity="1" stop-color="rgb(73.933411%, 37.112427%, 55.810547%)" offset="0.621094"/><stop stop-opacity="1" stop-color="rgb(74.282837%, 37.37793%, 55.467224%)" offset="0.625"/><stop stop-opacity="1" stop-color="rgb(74.632263%, 37.643433%, 55.123901%)" offset="0.628906"/><stop stop-opacity="1" stop-color="rgb(74.981689%, 37.908936%, 54.780579%)" offset="0.632812"/><stop stop-opacity="1" stop-color="rgb(75.331116%, 38.172913%, 54.437256%)" offset="0.636719"/><stop stop-opacity="1" stop-color="rgb(75.680542%, 38.438416%, 54.093933%)" offset="0.640625"/><stop stop-opacity="1" stop-color="rgb(76.029968%, 38.703918%, 53.75061%)" offset="0.644531"/><stop stop-opacity="1" stop-color="rgb(76.379395%, 38.969421%, 53.407288%)" offset="0.648438"/><stop stop-opacity="1" stop-color="rgb(76.728821%, 39.234924%, 53.063965%)" offset="0.652344"/><stop stop-opacity="1" stop-color="rgb(77.078247%, 39.500427%, 52.720642%)" offset="0.65625"/><stop stop-opacity="1" stop-color="rgb(77.427673%, 39.764404%, 52.377319%)" offset="0.660156"/><stop stop-opacity="1" stop-color="rgb(77.7771%, 40.029907%, 52.033997%)" offset="0.664062"/><stop stop-opacity="1" stop-color="rgb(78.126526%, 40.29541%, 51.690674%)" offset="0.667969"/><stop stop-opacity="1" stop-color="rgb(78.475952%, 40.560913%, 51.347351%)" offset="0.671875"/><stop stop-opacity="1" stop-color="rgb(78.825378%, 40.826416%, 51.004028%)" offset="0.675781"/><stop stop-opacity="1" stop-color="rgb(79.174805%, 41.091919%, 50.660706%)" offset="0.679688"/><stop stop-opacity="1" stop-color="rgb(79.524231%, 41.355896%, 50.317383%)" offset="0.683594"/><stop stop-opacity="1" stop-color="rgb(79.873657%, 41.621399%, 49.97406%)" offset="0.6875"/><stop stop-opacity="1" stop-color="rgb(80.223083%, 41.886902%, 49.630737%)" offset="0.691406"/><stop stop-opacity="1" stop-color="rgb(80.57251%, 42.152405%, 49.287415%)" offset="0.695312"/><stop stop-opacity="1" stop-color="rgb(80.921936%, 42.417908%, 48.944092%)" offset="0.699219"/><stop stop-opacity="1" stop-color="rgb(81.271362%, 42.683411%, 48.600769%)" offset="0.703125"/><stop stop-opacity="1" stop-color="rgb(81.620789%, 42.947388%, 48.257446%)" offset="0.707031"/><stop stop-opacity="1" stop-color="rgb(81.970215%, 43.212891%, 47.914124%)" offset="0.710938"/><stop stop-opacity="1" stop-color="rgb(82.319641%, 43.478394%, 47.570801%)" offset="0.714844"/><stop stop-opacity="1" stop-color="rgb(82.669067%, 43.743896%, 47.227478%)" offset="0.71875"/><stop stop-opacity="1" stop-color="rgb(83.018494%, 44.009399%, 46.884155%)" offset="0.722656"/><stop stop-opacity="1" stop-color="rgb(83.36792%, 44.274902%, 46.540833%)" offset="0.726562"/><stop stop-opacity="1" stop-color="rgb(83.717346%, 44.538879%, 46.19751%)" offset="0.730469"/><stop stop-opacity="1" stop-color="rgb(84.066772%, 44.804382%, 45.854187%)" offset="0.734375"/><stop stop-opacity="1" stop-color="rgb(84.416199%, 45.069885%, 45.510864%)" offset="0.738281"/><stop stop-opacity="1" stop-color="rgb(84.765625%, 45.335388%, 45.167542%)" offset="0.742187"/><stop stop-opacity="1" stop-color="rgb(85.115051%, 45.599365%, 44.824219%)" offset="0.746094"/><stop stop-opacity="1" stop-color="rgb(85.464478%, 45.864868%, 44.480896%)" offset="0.75"/><stop stop-opacity="1" stop-color="rgb(85.813904%, 46.130371%, 44.137573%)" offset="0.753906"/><stop stop-opacity="1" stop-color="rgb(86.16333%, 46.395874%, 43.79425%)" offset="0.757813"/><stop stop-opacity="1" stop-color="rgb(86.512756%, 46.661377%, 43.450928%)" offset="0.761719"/><stop stop-opacity="1" stop-color="rgb(86.862183%, 46.92688%, 43.107605%)" offset="0.765625"/><stop stop-opacity="1" stop-color="rgb(87.211609%, 47.190857%, 42.764282%)" offset="0.769531"/><stop stop-opacity="1" stop-color="rgb(87.561035%, 47.45636%, 42.420959%)" offset="0.773438"/><stop stop-opacity="1" stop-color="rgb(87.910461%, 47.721863%, 42.077637%)" offset="0.777344"/><stop stop-opacity="1" stop-color="rgb(88.259888%, 47.987366%, 41.734314%)" offset="0.78125"/><stop stop-opacity="1" stop-color="rgb(88.609314%, 48.252869%, 41.390991%)" offset="0.785156"/><stop stop-opacity="1" stop-color="rgb(88.95874%, 48.518372%, 41.047668%)" offset="0.789062"/><stop stop-opacity="1" stop-color="rgb(89.308167%, 48.782349%, 40.704346%)" offset="0.792969"/><stop stop-opacity="1" stop-color="rgb(89.657593%, 49.047852%, 40.361023%)" offset="0.796875"/><stop stop-opacity="1" stop-color="rgb(90.007019%, 49.313354%, 40.0177%)" offset="0.800781"/><stop stop-opacity="1" stop-color="rgb(90.356445%, 49.578857%, 39.674377%)" offset="0.804688"/><stop stop-opacity="1" stop-color="rgb(90.705872%, 49.84436%, 39.331055%)" offset="0.808594"/><stop stop-opacity="1" stop-color="rgb(91.055298%, 50.109863%, 38.987732%)" offset="0.8125"/><stop stop-opacity="1" stop-color="rgb(91.404724%, 50.37384%, 38.644409%)" offset="0.816406"/><stop stop-opacity="1" stop-color="rgb(91.75415%, 50.639343%, 38.301086%)" offset="0.820312"/><stop stop-opacity="1" stop-color="rgb(92.103577%, 50.904846%, 37.957764%)" offset="0.824219"/><stop stop-opacity="1" stop-color="rgb(92.453003%, 51.170349%, 37.614441%)" offset="0.828125"/><stop stop-opacity="1" stop-color="rgb(92.800903%, 51.435852%, 37.271118%)" offset="0.832031"/><stop stop-opacity="1" stop-color="rgb(93.15033%, 51.701355%, 36.927795%)" offset="0.835938"/><stop stop-opacity="1" stop-color="rgb(93.499756%, 51.965332%, 36.584473%)" offset="0.839844"/><stop stop-opacity="1" stop-color="rgb(93.849182%, 52.230835%, 36.24115%)" offset="0.84375"/><stop stop-opacity="1" stop-color="rgb(94.198608%, 52.496338%, 35.897827%)" offset="0.847656"/><stop stop-opacity="1" stop-color="rgb(94.548035%, 52.761841%, 35.554504%)" offset="0.851563"/><stop stop-opacity="1" stop-color="rgb(94.897461%, 53.027344%, 35.211182%)" offset="0.855469"/><stop stop-opacity="1" stop-color="rgb(95.246887%, 53.292847%, 34.867859%)" offset="0.859375"/><stop stop-opacity="1" stop-color="rgb(95.596313%, 53.556824%, 34.524536%)" offset="0.863281"/><stop stop-opacity="1" stop-color="rgb(95.94574%, 53.822327%, 34.181213%)" offset="0.867188"/><stop stop-opacity="1" stop-color="rgb(96.295166%, 54.08783%, 33.837891%)" offset="0.871094"/><stop stop-opacity="1" stop-color="rgb(96.644592%, 54.353333%, 33.494568%)" offset="0.875"/><stop stop-opacity="1" stop-color="rgb(96.994019%, 54.61731%, 33.151245%)" offset="0.878906"/><stop stop-opacity="1" stop-color="rgb(97.343445%, 54.882812%, 32.807922%)" offset="0.882812"/><stop stop-opacity="1" stop-color="rgb(97.692871%, 55.148315%, 32.4646%)" offset="0.886719"/><stop stop-opacity="1" stop-color="rgb(98.042297%, 55.413818%, 32.121277%)" offset="0.890625"/><stop stop-opacity="1" stop-color="rgb(98.391724%, 55.679321%, 31.777954%)" offset="0.894531"/><stop stop-opacity="1" stop-color="rgb(98.74115%, 55.944824%, 31.434631%)" offset="0.898438"/><stop stop-opacity="1" stop-color="rgb(99.090576%, 56.208801%, 31.091309%)" offset="0.902344"/><stop stop-opacity="1" stop-color="rgb(99.440002%, 56.474304%, 30.747986%)" offset="0.90625"/><stop stop-opacity="1" stop-color="rgb(99.719238%, 56.686401%, 30.473328%)" offset="0.910156"/><stop stop-opacity="1" stop-color="rgb(100%, 56.898499%, 30.198669%)" offset="0.914063"/><stop stop-opacity="1" stop-color="rgb(100%, 56.898499%, 30.198669%)" offset="0.921875"/><stop stop-opacity="1" stop-color="rgb(100%, 56.898499%, 30.198669%)" offset="0.9375"/><stop stop-opacity="1" stop-color="rgb(100%, 56.898499%, 30.198669%)" offset="0.957836"/><stop stop-opacity="1" stop-color="rgb(100%, 56.898499%, 30.198669%)" offset="1"/></linearGradient></defs><g clip-path="url(#id3)"><g clip-path="url(#id4)"><path fill="url(#id5)" d="M 60.816406 128.8125 L 60.816406 714.5625 L 567.890625 714.5625 L 567.890625 128.8125 Z M 60.816406 128.8125 " fill-rule="nonzero"/></g></g><g fill="rgb(100%, 56.858826%, 30.198669%)" fill-opacity="1"><g transform="translate(646.340579, 488.565427)"><g><path d="M 88.90625 -108.15625 L 44.96875 -108.15625 L 44.96875 -75.515625 L 83.046875 -75.515625 L 83.046875 -51.453125 L 44.96875 -51.453125 L 44.96875 0 L 8.375 0 L 8.375 -134.296875 L 88.90625 -134.296875 Z M 88.90625 -108.15625 "/></g></g></g><g fill="rgb(100%, 56.858826%, 30.198669%)" fill-opacity="1"><g transform="translate(767.659124, 488.565427)"><g><path d="M 8.375 -134.296875 L 44.96875 -134.296875 L 44.96875 0 L 8.375 0 Z M 8.375 -134.296875 "/></g></g></g><g fill="rgb(100%, 56.858826%, 30.198669%)" fill-opacity="1"><g transform="translate(850.2822, 488.565427)"><g><path d="M 92.875 -134.296875 L 92.875 -108.15625 L 42.46875 -26.15625 L 91.421875 -26.15625 L 91.421875 0 L 4.1875 0 L 4.1875 -26.15625 L 54.59375 -108.15625 L 6.90625 -108.15625 L 6.90625 -134.296875 Z M 92.875 -134.296875 "/></g></g></g><g fill="rgb(100%, 56.858826%, 30.198669%)" fill-opacity="1"><g transform="translate(976.620733, 488.565427)"><g><path d="M 92.875 -134.296875 L 92.875 -108.15625 L 42.46875 -26.15625 L 91.421875 -26.15625 L 91.421875 0 L 4.1875 0 L 4.1875 -26.15625 L 54.59375 -108.15625 L 6.90625 -108.15625 L 6.90625 -134.296875 Z M 92.875 -134.296875 "/></g></g></g><g fill="rgb(100%, 56.858826%, 30.198669%)" fill-opacity="1"><g transform="translate(1102.959265, 488.565427)"><g><path d="M 64.640625 -83.890625 L 64.640625 -105.640625 C 64.640625 -108.703125 62.894531 -110.234375 59.40625 -110.234375 L 44.34375 -110.234375 L 44.34375 -79.28125 L 59.40625 -79.28125 C 62.894531 -79.28125 64.640625 -80.816406 64.640625 -83.890625 Z M 64.640625 -28.65625 L 64.640625 -50.625 C 64.640625 -53.6875 62.894531 -55.21875 59.40625 -55.21875 L 44.34375 -55.21875 L 44.34375 -24.0625 L 59.40625 -24.0625 C 62.894531 -24.0625 64.640625 -25.59375 64.640625 -28.65625 Z M 8.375 -134.296875 L 69.875 -134.296875 C 90.375 -134.296875 100.625 -125.648438 100.625 -108.359375 L 100.625 -91.203125 C 100.625 -79.066406 97.273438 -71.1875 90.578125 -67.5625 C 94.484375 -65.894531 97.132812 -63.351562 98.53125 -59.9375 C 99.925781 -56.519531 100.625 -51.878906 100.625 -46.015625 L 100.625 -25.9375 C 100.625 -8.644531 90.375 0 69.875 0 L 8.375 0 Z M 8.375 -134.296875 "/></g></g></g><g fill="rgb(100%, 56.858826%, 30.198669%)" fill-opacity="1"><g transform="translate(1240.17434, 488.565427)"><g><path d="M 64.21875 -134.296875 L 100.828125 -134.296875 L 100.828125 -25.9375 C 100.828125 -8.644531 90.578125 0 70.078125 0 L 39.125 0 C 18.625 0 8.375 -8.644531 8.375 -25.9375 L 8.375 -134.296875 L 44.96875 -134.296875 L 44.96875 -30.75 C 44.96875 -27.6875 46.710938 -26.15625 50.203125 -26.15625 L 58.984375 -26.15625 C 62.472656 -26.15625 64.21875 -27.6875 64.21875 -30.75 Z M 64.21875 -134.296875 "/></g></g></g><g fill="rgb(100%, 56.858826%, 30.198669%)" fill-opacity="1"><g transform="translate(1378.644398, 488.565427)"><g><path d="M 92.875 -134.296875 L 92.875 -108.15625 L 42.46875 -26.15625 L 91.421875 -26.15625 L 91.421875 0 L 4.1875 0 L 4.1875 -26.15625 L 54.59375 -108.15625 L 6.90625 -108.15625 L 6.90625 -134.296875 Z M 92.875 -134.296875 "/></g></g></g><g fill="rgb(100%, 56.858826%, 30.198669%)" fill-opacity="1"><g transform="translate(1504.98293, 488.565427)"><g><path d="M 92.875 -134.296875 L 92.875 -108.15625 L 42.46875 -26.15625 L 91.421875 -26.15625 L 91.421875 0 L 4.1875 0 L 4.1875 -26.15625 L 54.59375 -108.15625 L 6.90625 -108.15625 L 6.90625 -134.296875 Z M 92.875 -134.296875 "/></g></g></g><g fill="rgb(36.859131%, 9.01947%, 92.158508%)" fill-opacity="1"><g transform="translate(684.983633, 614.587828)"><g><path d="M 30.4375 -45.765625 L 30.4375 -36.859375 L 21.59375 -36.859375 L 21.59375 0 L 9.125 0 L 9.125 -36.859375 L 0.359375 -36.859375 L 0.359375 -45.765625 Z M 30.4375 -45.765625 "/></g></g></g><g fill="rgb(36.859131%, 9.01947%, 92.158508%)" fill-opacity="1"><g transform="translate(726.329747, 614.587828)"><g><path d="M 24.09375 -45.765625 L 36.359375 -45.765625 L 36.359375 0 L 24.09375 0 L 24.09375 -18.109375 L 15.109375 -18.109375 L 15.109375 0 L 2.84375 0 L 2.84375 -45.765625 L 15.109375 -45.765625 L 15.109375 -27.015625 L 24.09375 -27.015625 Z M 24.09375 -45.765625 "/></g></g></g><g fill="rgb(36.859131%, 9.01947%, 92.158508%)" fill-opacity="1"><g transform="translate(776.087707, 614.587828)"><g><path d="M 15.328125 -8.90625 L 30.9375 -8.90625 L 30.9375 0 L 2.84375 0 L 2.84375 -45.765625 L 30.296875 -45.765625 L 30.296875 -36.859375 L 15.328125 -36.859375 L 15.328125 -27.515625 L 28.234375 -27.515625 L 28.234375 -18.609375 L 15.328125 -18.609375 Z M 15.328125 -8.90625 "/></g></g></g><g fill="rgb(36.859131%, 9.01947%, 92.158508%)" fill-opacity="1"><g transform="translate(818.645647, 614.587828)"><g/></g></g><g fill="rgb(36.859131%, 9.01947%, 92.158508%)" fill-opacity="1"><g transform="translate(843.453338, 614.587828)"><g><path d="M 33.5 -28.65625 L 21.03125 -28.65625 L 21.03125 -36 C 21.03125 -37.039062 20.4375 -37.5625 19.25 -37.5625 L 16.75 -37.5625 C 15.5625 -37.5625 14.96875 -37.039062 14.96875 -36 L 14.96875 -9.765625 C 14.96875 -8.722656 15.5625 -8.203125 16.75 -8.203125 L 19.25 -8.203125 C 20.4375 -8.203125 21.03125 -8.722656 21.03125 -9.765625 L 21.03125 -16.828125 L 33.5 -16.828125 L 33.5 -8.84375 C 33.5 -2.945312 30.007812 0 23.03125 0 L 12.96875 0 C 5.988281 0 2.5 -2.945312 2.5 -8.84375 L 2.5 -36.921875 C 2.5 -42.816406 5.988281 -45.765625 12.96875 -45.765625 L 23.03125 -45.765625 C 30.007812 -45.765625 33.5 -42.816406 33.5 -36.921875 Z M 33.5 -28.65625 "/></g></g></g><g fill="rgb(36.859131%, 9.01947%, 92.158508%)" fill-opacity="1"><g transform="translate(889.290549, 614.587828)"><g><path d="M 15.328125 -8.90625 L 29.515625 -8.90625 L 29.515625 0 L 2.84375 0 L 2.84375 -45.765625 L 15.328125 -45.765625 Z M 15.328125 -8.90625 "/></g></g></g><g fill="rgb(36.859131%, 9.01947%, 92.158508%)" fill-opacity="1"><g transform="translate(929.3535, 614.587828)"><g><path d="M 26.15625 0 L 24.734375 -6.84375 L 13.75 -6.84375 L 12.265625 0 L 0 0 L 11.765625 -45.765625 L 26.9375 -45.765625 L 38.703125 0 Z M 15.6875 -15.6875 L 22.8125 -15.6875 L 19.3125 -32.140625 Z M 15.6875 -15.6875 "/></g></g></g><g fill="rgb(36.859131%, 9.01947%, 92.158508%)" fill-opacity="1"><g transform="translate(978.612465, 614.587828)"><g><path d="M 20.390625 -10.484375 L 20.390625 -16.96875 C 20.390625 -18.007812 19.796875 -18.53125 18.609375 -18.53125 L 11.765625 -18.53125 C 8.242188 -18.53125 5.757812 -19.300781 4.3125 -20.84375 C 2.863281 -22.394531 2.140625 -24.617188 2.140625 -27.515625 L 2.140625 -36.921875 C 2.140625 -42.816406 5.609375 -45.765625 12.546875 -45.765625 L 22.3125 -45.765625 C 29.25 -45.765625 32.71875 -42.816406 32.71875 -36.921875 L 32.71875 -31.4375 L 20.25 -31.4375 L 20.25 -35.28125 C 20.25 -36.332031 19.65625 -36.859375 18.46875 -36.859375 L 16.390625 -36.859375 C 15.203125 -36.859375 14.609375 -36.332031 14.609375 -35.28125 L 14.609375 -28.515625 C 14.609375 -27.460938 15.203125 -26.9375 16.390625 -26.9375 L 23.09375 -26.9375 C 26.613281 -26.9375 29.117188 -26.203125 30.609375 -24.734375 C 32.109375 -23.265625 32.859375 -21.101562 32.859375 -18.25 L 32.859375 -8.84375 C 32.859375 -2.945312 29.390625 0 22.453125 0 L 12.765625 0 C 5.773438 0 2.28125 -2.945312 2.28125 -8.84375 L 2.28125 -14.328125 L 14.75 -14.328125 L 14.75 -10.484375 C 14.75 -9.429688 15.34375 -8.90625 16.53125 -8.90625 L 18.609375 -8.90625 C 19.796875 -8.90625 20.390625 -9.429688 20.390625 -10.484375 Z M 20.390625 -10.484375 "/></g></g></g><g fill="rgb(36.859131%, 9.01947%, 92.158508%)" fill-opacity="1"><g transform="translate(1024.164508, 614.587828)"><g><path d="M 20.390625 -10.484375 L 20.390625 -16.96875 C 20.390625 -18.007812 19.796875 -18.53125 18.609375 -18.53125 L 11.765625 -18.53125 C 8.242188 -18.53125 5.757812 -19.300781 4.3125 -20.84375 C 2.863281 -22.394531 2.140625 -24.617188 2.140625 -27.515625 L 2.140625 -36.921875 C 2.140625 -42.816406 5.609375 -45.765625 12.546875 -45.765625 L 22.3125 -45.765625 C 29.25 -45.765625 32.71875 -42.816406 32.71875 -36.921875 L 32.71875 -31.4375 L 20.25 -31.4375 L 20.25 -35.28125 C 20.25 -36.332031 19.65625 -36.859375 18.46875 -36.859375 L 16.390625 -36.859375 C 15.203125 -36.859375 14.609375 -36.332031 14.609375 -35.28125 L 14.609375 -28.515625 C 14.609375 -27.460938 15.203125 -26.9375 16.390625 -26.9375 L 23.09375 -26.9375 C 26.613281 -26.9375 29.117188 -26.203125 30.609375 -24.734375 C 32.109375 -23.265625 32.859375 -21.101562 32.859375 -18.25 L 32.859375 -8.84375 C 32.859375 -2.945312 29.390625 0 22.453125 0 L 12.765625 0 C 5.773438 0 2.28125 -2.945312 2.28125 -8.84375 L 2.28125 -14.328125 L 14.75 -14.328125 L 14.75 -10.484375 C 14.75 -9.429688 15.34375 -8.90625 16.53125 -8.90625 L 18.609375 -8.90625 C 19.796875 -8.90625 20.390625 -9.429688 20.390625 -10.484375 Z M 20.390625 -10.484375 "/></g></g></g><g fill="rgb(36.859131%, 9.01947%, 92.158508%)" fill-opacity="1"><g transform="translate(1069.716527, 614.587828)"><g><path d="M 2.84375 -45.765625 L 15.328125 -45.765625 L 15.328125 0 L 2.84375 0 Z M 2.84375 -45.765625 "/></g></g></g><g fill="rgb(36.859131%, 9.01947%, 92.158508%)" fill-opacity="1"><g transform="translate(1098.444972, 614.587828)"><g><path d="M 33.5 -28.65625 L 21.03125 -28.65625 L 21.03125 -36 C 21.03125 -37.039062 20.4375 -37.5625 19.25 -37.5625 L 16.75 -37.5625 C 15.5625 -37.5625 14.96875 -37.039062 14.96875 -36 L 14.96875 -9.765625 C 14.96875 -8.722656 15.5625 -8.203125 16.75 -8.203125 L 19.25 -8.203125 C 20.4375 -8.203125 21.03125 -8.722656 21.03125 -9.765625 L 21.03125 -16.828125 L 33.5 -16.828125 L 33.5 -8.84375 C 33.5 -2.945312 30.007812 0 23.03125 0 L 12.96875 0 C 5.988281 0 2.5 -2.945312 2.5 -8.84375 L 2.5 -36.921875 C 2.5 -42.816406 5.988281 -45.765625 12.96875 -45.765625 L 23.03125 -45.765625 C 30.007812 -45.765625 33.5 -42.816406 33.5 -36.921875 Z M 33.5 -28.65625 "/></g></g></g><g fill="rgb(36.859131%, 9.01947%, 92.158508%)" fill-opacity="1"><g transform="translate(1144.282183, 614.587828)"><g/></g></g><g fill="rgb(36.859131%, 9.01947%, 92.158508%)" fill-opacity="1"><g transform="translate(1169.089873, 614.587828)"><g><path d="M 33.5 -28.65625 L 21.03125 -28.65625 L 21.03125 -36 C 21.03125 -37.039062 20.4375 -37.5625 19.25 -37.5625 L 16.75 -37.5625 C 15.5625 -37.5625 14.96875 -37.039062 14.96875 -36 L 14.96875 -9.765625 C 14.96875 -8.722656 15.5625 -8.203125 16.75 -8.203125 L 19.25 -8.203125 C 20.4375 -8.203125 21.03125 -8.722656 21.03125 -9.765625 L 21.03125 -16.828125 L 33.5 -16.828125 L 33.5 -8.84375 C 33.5 -2.945312 30.007812 0 23.03125 0 L 12.96875 0 C 5.988281 0 2.5 -2.945312 2.5 -8.84375 L 2.5 -36.921875 C 2.5 -42.816406 5.988281 -45.765625 12.96875 -45.765625 L 23.03125 -45.765625 C 30.007812 -45.765625 33.5 -42.816406 33.5 -36.921875 Z M 33.5 -28.65625 "/></g></g></g><g fill="rgb(36.859131%, 9.01947%, 92.158508%)" fill-opacity="1"><g transform="translate(1214.927085, 614.587828)"><g><path d="M 24.09375 -45.765625 L 36.359375 -45.765625 L 36.359375 0 L 24.09375 0 L 24.09375 -18.109375 L 15.109375 -18.109375 L 15.109375 0 L 2.84375 0 L 2.84375 -45.765625 L 15.109375 -45.765625 L 15.109375 -27.015625 L 24.09375 -27.015625 Z M 24.09375 -45.765625 "/></g></g></g><g fill="rgb(36.859131%, 9.01947%, 92.158508%)" fill-opacity="1"><g transform="translate(1264.68505, 614.587828)"><g><path d="M 26.15625 0 L 24.734375 -6.84375 L 13.75 -6.84375 L 12.265625 0 L 0 0 L 11.765625 -45.765625 L 26.9375 -45.765625 L 38.703125 0 Z M 15.6875 -15.6875 L 22.8125 -15.6875 L 19.3125 -32.140625 Z M 15.6875 -15.6875 "/></g></g></g><g fill="rgb(36.859131%, 9.01947%, 92.158508%)" fill-opacity="1"><g transform="translate(1313.944015, 614.587828)"><g><path d="M 15.328125 -8.90625 L 29.515625 -8.90625 L 29.515625 0 L 2.84375 0 L 2.84375 -45.765625 L 15.328125 -45.765625 Z M 15.328125 -8.90625 "/></g></g></g><g fill="rgb(36.859131%, 9.01947%, 92.158508%)" fill-opacity="1"><g transform="translate(1354.006966, 614.587828)"><g><path d="M 15.328125 -8.90625 L 29.515625 -8.90625 L 29.515625 0 L 2.84375 0 L 2.84375 -45.765625 L 15.328125 -45.765625 Z M 15.328125 -8.90625 "/></g></g></g><g fill="rgb(36.859131%, 9.01947%, 92.158508%)" fill-opacity="1"><g transform="translate(1394.069918, 614.587828)"><g><path d="M 15.328125 -8.90625 L 30.9375 -8.90625 L 30.9375 0 L 2.84375 0 L 2.84375 -45.765625 L 30.296875 -45.765625 L 30.296875 -36.859375 L 15.328125 -36.859375 L 15.328125 -27.515625 L 28.234375 -27.515625 L 28.234375 -18.609375 L 15.328125 -18.609375 Z M 15.328125 -8.90625 "/></g></g></g><g fill="rgb(36.859131%, 9.01947%, 92.158508%)" fill-opacity="1"><g transform="translate(1436.627869, 614.587828)"><g><path d="M 23.734375 -45.765625 L 35.140625 -45.765625 L 35.140625 0 L 24.453125 0 L 14.25 -24.015625 L 14.25 0 L 2.84375 0 L 2.84375 -45.765625 L 13.546875 -45.765625 L 23.734375 -21.3125 Z M 23.734375 -45.765625 "/></g></g></g><g fill="rgb(36.859131%, 9.01947%, 92.158508%)" fill-opacity="1"><g transform="translate(1485.173867, 614.587828)"><g><path d="M 33.578125 -30.078125 L 21.09375 -30.078125 L 21.09375 -36 C 21.09375 -37.039062 20.5 -37.5625 19.3125 -37.5625 L 16.75 -37.5625 C 15.5625 -37.5625 14.96875 -37.039062 14.96875 -36 L 14.96875 -9.765625 C 14.96875 -8.722656 15.5625 -8.203125 16.75 -8.203125 L 19.3125 -8.203125 C 20.5 -8.203125 21.09375 -8.722656 21.09375 -9.765625 L 21.09375 -17.390625 L 17.53125 -17.390625 L 17.53125 -25.3125 L 33.578125 -25.3125 L 33.578125 -8.84375 C 33.578125 -2.945312 30.082031 0 23.09375 0 L 12.96875 0 C 5.988281 0 2.5 -2.945312 2.5 -8.84375 L 2.5 -36.921875 C 2.5 -42.816406 5.988281 -45.765625 12.96875 -45.765625 L 23.09375 -45.765625 C 30.082031 -45.765625 33.578125 -42.816406 33.578125 -36.921875 Z M 33.578125 -30.078125 "/></g></g></g><g fill="rgb(36.859131%, 9.01947%, 92.158508%)" fill-opacity="1"><g transform="translate(1531.438741, 614.587828)"><g><path d="M 15.328125 -8.90625 L 30.9375 -8.90625 L 30.9375 0 L 2.84375 0 L 2.84375 -45.765625 L 30.296875 -45.765625 L 30.296875 -36.859375 L 15.328125 -36.859375 L 15.328125 -27.515625 L 28.234375 -27.515625 L 28.234375 -18.609375 L 15.328125 -18.609375 Z M 15.328125 -8.90625 "/></g></g></g></svg>